<?xml version="1.0" encoding="utf-8"?>
<!-- Generator: Adobe Illustrator 26.0.2, SVG Export Plug-In . SVG Version: 6.00 Build 0)  -->
<svg version="1.1" id="Layer_1" xmlns="http://www.w3.org/2000/svg" xmlns:xlink="http://www.w3.org/1999/xlink" x="0px" y="0px"
	 viewBox="0 0 1198 153" style="enable-background:new 0 0 1198 153;" xml:space="preserve">
<style type="text/css">
	.st0{fill:#333333;}
	.st1{fill:#FF7900;}
	.st2{fill:#FFD700;}
</style>
<g>
	<g>
		<path class="st0" d="M10.1,106.5C3.4,99.4,0,89.2,0,76.1c0-8.6,1.4-16.1,4.4-22.2c3-6.1,7.1-10.8,12.4-14.1
			c5.3-3.2,11.5-4.8,18.6-4.8c4.3,0,8.6,1.2,12.9,3.7c1.6,0.9,3.3,2.1,4.9,3.6c1.2-1.9,2.6-3.5,3.9-4.6c1.3-1,2.1-1.5,2.2-1.5h2.9
			v21.4h-4.5c-1-3.6-2.4-6.9-4.4-9.8c-1.8-2.9-4-5.2-6.6-7.1c-2.7-1.8-5.7-2.9-9.2-2.9c-5.2,0-9.5,3-12.9,9
			c-3.4,6-5.1,15.8-5.1,29.3c0,13.7,1.8,23.5,5.5,29.5c3.7,5.9,8.8,8.8,15.2,8.8c3.5,0,6.8-1,10-3c3.2-1.9,5.7-4.6,7.8-8
			c2.1-3.2,3.2-6.7,3.2-10.3H64c0,4.3-1.1,8.3-3.5,12c-2.2,3.7-5.4,6.7-9.3,8.9c-4,2.3-8.3,3.3-13.1,3.3
			C26.1,117.3,16.8,113.7,10.1,106.5z"/>
		<path class="st0" d="M79.2,109.3c-5.3-5.3-8-12.6-8-21.9s2.7-16.6,8-21.9s12.5-8,21.8-8s16.5,2.7,21.8,8c5.3,5.3,8,12.6,8,21.9
			s-2.7,16.6-8,21.9c-5.3,5.3-12.5,8-21.8,8C91.7,117.3,84.4,114.6,79.2,109.3z M108.5,108.7c2-4.2,3.1-11.3,3.1-21.3
			s-1-17.1-3.1-21.3c-2-4.2-4.6-6.3-7.5-6.3c-3,0-5.5,2.1-7.5,6.3s-3.1,11.3-3.1,21.3s1,17.1,3.1,21.3c2,4.2,4.6,6.3,7.5,6.3
			C103.9,115,106.5,112.9,108.5,108.7z"/>
		<path class="st0" d="M139.7,113.9l6.7-1.6V62.6l-6.7-1.6v-1.6h10.1c4.4,0,7.9,1.4,10.4,4.3c1,1.1,1.8,2.6,2.4,4.2
			c1.1-2.1,2.3-3.8,3.6-5.1c3.4-3.4,7.2-5,11.5-5c4.4,0,8.2,0.9,11.4,2.9c3.3,1.9,5.8,4.5,7.7,7.8c1.1-2.1,2.3-3.9,3.6-5.3
			c3.5-3.6,7.2-5.4,11.5-5.4c4,0,7.5,0.8,10.7,2.5c3.2,1.6,5.6,3.9,7.4,6.8c1.7,2.9,2.7,5.9,2.7,9.3v36l6.7,1.6v1.6h-14.6
			c-6.7,0-10.1-3.4-10.1-10.1V76.1c0-4.9-0.7-8.5-2.2-11c-1.5-2.5-3.2-3.7-5-3.7c-2.1,0-4.4,1.5-6.6,4.5c-0.9,1.4-1.6,3-2.3,4.5
			v41.7l6.7,1.6v1.6h-31.4v-1.6l6.7-1.6v-36c0-4.9-0.7-8.5-2.2-11c-1.5-2.5-3.2-3.7-5.1-3.7c-2.1,0-4.4,1.5-6.6,4.5
			c-0.9,1.4-1.7,3-2.3,4.5v41.7l6.7,1.6v1.6h-31.3V113.9z"/>
		<path class="st0" d="M254.2,109.3c-5.3-5.3-8-12.6-8-21.9c0-6,1.1-11.4,3.5-15.9c2.3-4.5,5.5-8,9.7-10.3c4.2-2.4,8.9-3.6,14.3-3.6
			s10.1,1,14.2,3.1s7.2,4.7,9.4,8.2c2.2,3.4,3.3,7.2,3.3,11.4c0,1.8-0.2,3.5-0.5,4.8l-0.6,1.9c-3.3,0.7-6.7,1.2-10.4,1.6
			c-7.9,1.1-15.8,1.6-23.8,1.6c0,8.7,1.2,14.9,3.6,18.6c2.3,3.7,5.7,5.5,9.9,5.5c3,0,5.6-0.7,8.2-2c2.6-1.4,4.5-3.3,5.9-5.5
			c1.4-2.3,2.1-4.6,2.1-7.1h2.9c0,3-0.9,5.8-2.7,8.6c-1.8,2.7-4.3,4.8-7.5,6.4c-3.3,1.6-6.9,2.5-11.1,2.5
			C267,117.3,259.5,114.6,254.2,109.3z M277.1,86.9c1.2-0.1,2.7-0.3,4.1-0.6c0.1-0.4,0.3-1.2,0.5-2.5c0.4-1.8,0.6-3.9,0.6-5.9
			c0-6.2-0.8-10.7-2.4-13.7c-1.6-2.9-3.7-4.3-5.9-4.3c-5.6,0-8.4,9.2-8.4,27.6C270.1,87.4,274,87.2,277.1,86.9z"/>
		<path class="st0" d="M333.8,113.9l9-3.4l30.8-74.8h3.4l32,76.6l5.6,1.6v1.6h-13.5c-3.9,0-7-0.9-9.5-2.7c-2.4-1.7-4.3-4.1-5.5-7
			l-5.7-13.4h-26.8l-7.4,18l8.4,3.4v1.6h-20.8v-1.6H333.8z M354.7,89.7h24.6l-12.3-29.6L354.7,89.7z"/>
		<path class="st0" d="M416.8,113.9l6.7-1.6V40.1l-6.7-1.6v-1.6h14.6c6.7,0,10.1,3.4,10.1,10.1v65.3l6.7,1.6v1.6h-31.4V113.9z"/>
		<path class="st0" d="M462.9,109.3c-5.3-5.3-8-12.6-8-21.9s2.7-16.6,8-21.9c5.3-5.3,12.5-8,21.8-8s16.5,2.7,21.8,8
			c5.3,5.3,8,12.6,8,21.9s-2.7,16.6-8,21.9c-5.3,5.3-12.5,8-21.8,8C475.5,117.3,468.1,114.6,462.9,109.3z M492.3,108.7
			c2-4.2,3.1-11.3,3.1-21.3s-1-17.1-3.1-21.3c-2-4.2-4.6-6.3-7.5-6.3c-3,0-5.5,2.1-7.5,6.3c-2,4.2-3.1,11.3-3.1,21.3
			s1,17.1,3.1,21.3c2,4.2,4.6,6.3,7.5,6.3C487.7,115,490.3,112.9,492.3,108.7z"/>
		<path class="st0" d="M523.4,113.9l6.7-1.6V62.6l-6.7-1.6v-1.6h10.1c4.4,0,7.9,1.4,10.4,4.3c1,1.1,1.8,2.6,2.4,4.2
			c1-1.9,2.2-3.7,3.7-5.1c3.4-3.4,7.5-5,12.5-5c4.2,0,8,0.9,11.3,2.7c3.4,1.7,5.9,4.1,7.8,7c1.8,2.9,2.9,5.8,2.9,9v36l6.7,1.6v1.6
			h-14.6c-6.7,0-10.1-3.4-10.1-10.1V76.1c0-4.7-0.8-8.4-2.6-10.8c-1.6-2.6-3.7-3.8-5.9-3.8c-2.9,0-5.4,1.5-7.7,4.5
			c-1,1.2-1.8,2.8-2.4,4.5v41.7l6.7,1.6v1.6h-31.4v-1.5H523.4z"/>
		<path class="st0" d="M608.2,138c-4.2-1.2-7.2-2.8-9.1-4.6c-1.8-1.8-2.8-3.9-2.8-5.9c0-2.6,0.8-4.6,2.3-6.1s3.6-2.4,6.1-2.4
			c0.6,0,1.7,0.1,3.3,0.3l1.2,0.2v15.8c0.9,0.3,2.3,0.7,4.3,1.1c3.5,0.7,6.7,1.1,9.8,1.1c9.1,0,15.8-1.3,20-3.9
			c4.2-2.6,6.3-5.8,6.3-9.6c0-4.9-4.5-7.3-13.5-7.3h-21.3c-5.6,0-9.9-1.1-13-3.5c-3-2.4-4.5-5.3-4.5-8.9c0-3.6,1.7-6.8,5.3-9.6
			c1.4-1,3.3-1.9,5.4-2.9c-2.8-1.7-4.8-3.8-6-6.1c-1.2-2.4-1.8-5.2-1.8-8.5c0-5.5,2.1-10,6.3-13.4c4.2-3.4,10.3-5.1,18.4-5.1
			c3.5,0,6.7,0.3,9.7,1s5.3,1.6,7.1,2.9c0.6-1.2,1.4-2.4,2.3-3.4c2.2-2.3,5-3.4,8.3-3.4c2.6,0,4.7,0.9,6.4,2.7
			c1.7,1.7,2.6,4.1,2.6,7c0,2.1-0.6,4-1.7,5.3c-1.1,1.3-2.7,2-4.4,2c-0.8,0-1.7-0.1-2.9-0.2l-1.1-0.3V58.7c-1.9,0-3.8,0.9-5.5,2.9
			c-0.7,0.7-1.2,1.6-1.8,2.9c3.8,3.3,5.6,7.6,5.6,12.9c0,5.5-2.1,10-6.3,13.4c-4.2,3.4-10.3,5.1-18.4,5.1c-5.4,0-10.2-0.9-14.6-2.9
			l-2.2,1.1c-0.7,0.4-1.3,0.9-1.6,1.3c-0.4,0.4-0.6,0.9-0.6,1.5c0,1.2,0.6,2.3,1.9,3c1.3,0.7,3.7,1,7,1h21.3c5.6,0,10,1.6,13.2,4.9
			c3.2,3.3,4.8,7.8,4.8,13.7c0,6-2.4,10.8-7.4,14.6s-12.4,5.6-22.2,5.6C617.8,139.8,612.4,139.2,608.2,138z M630.7,90
			c1.4-2.4,2-6.7,2-12.7c0-6-0.7-10.3-2-12.7c-1.4-2.4-3.3-3.6-5.8-3.6c-2.6,0-4.4,1.2-5.8,3.6c-1.4,2.4-2,6.7-2,12.7
			c0,6,0.7,10.3,2,12.7c1.4,2.4,3.3,3.6,5.8,3.6C627.5,93.5,629.4,92.4,630.7,90z"/>
		<path class="st0" d="M711,113.6c-2.1-1-3.9-2.3-5.3-3.7c-1,1.7-2.3,3.3-4,4.6c-1.3,1-2.1,1.5-2.2,1.5h-2.9V94.8h4.5
			c1.1,3.7,2.7,7,4.7,9.9c4.6,6.6,10.5,9.8,17.7,9.8c4.3,0,7.7-1.2,10.2-3.8s3.8-5.9,3.8-10.2c0-2.5-0.7-4.7-2.1-6.7
			c-1.4-1.9-3.3-3.7-5.4-5.2c-2.1-1.5-5.2-3.4-9.1-5.6c-4.9-2.8-9-5.3-12-7.6c-3.1-2.3-5.7-5.1-7.9-8.5c-2.1-3.4-3.3-7.5-3.3-12.1
			c0-3.7,1-7,3.1-9.9c2-3,5.1-5.3,9.3-7.1c4.1-1.7,9.2-2.7,15.2-2.7c4.4,0,8.7,1.2,13.1,3.7c1.6,0.9,3.3,2.1,4.9,3.6
			c1.2-1.9,2.6-3.5,3.9-4.6c1.3-1,2.1-1.5,2.2-1.5h2.9v21.4h-4.5c-1-3.6-2.4-6.9-4.4-9.8c-1.8-2.9-4-5.2-6.6-7.1
			c-2.7-1.8-5.7-2.9-9.2-2.9c-3,0-5.4,1.1-7.5,3.5c-2.1,2.4-3.2,5.3-3.2,8.9c0,2.8,0.8,5.3,2.4,7.5c1.6,2.3,3.6,4.2,5.9,5.8
			s5.5,3.7,9.6,5.9c4.7,2.7,8.6,5.1,11.4,7.2c3,2.1,5.4,4.7,7.4,7.8c2,3.1,3.1,6.7,3.1,10.7c0,4.1-1.1,7.8-3.5,11.1
			c-2.3,3.4-5.8,5.9-10.4,8c-4.6,1.9-10.3,3-16.9,3C720.7,117.3,715.7,116.1,711,113.6z"/>
		<path class="st0" d="M772,109.3c-5.3-5.3-8-12.6-8-21.9s2.7-16.6,8-21.9s12.5-8,21.8-8c9.3,0,16.5,2.7,21.8,8s8,12.6,8,21.9
			s-2.7,16.6-8,21.9s-12.5,8-21.8,8C784.6,117.3,777.3,114.6,772,109.3z M801.4,108.7c2-4.2,3.1-11.3,3.1-21.3s-1-17.1-3.1-21.3
			c-2-4.2-4.6-6.3-7.5-6.3s-5.5,2.1-7.5,6.3c-2,4.2-3.1,11.3-3.1,21.3s1,17.1,3.1,21.3c2,4.2,4.6,6.3,7.5,6.3
			C796.8,115,799.3,112.9,801.4,108.7z"/>
		<path class="st0" d="M832.6,113.9l6.7-1.6V62.6l-6.7-1.6v-1.6h10.1c4.4,0,7.9,1.4,10.4,4.3c1,1.1,1.8,2.6,2.4,4.2
			c1-1.9,2.2-3.7,3.7-5.1c3.4-3.4,7.5-5,12.5-5c4.2,0,8,0.9,11.3,2.7c3.4,1.7,5.9,4.1,7.8,7s2.9,5.8,2.9,9v36l6.7,1.6v1.6h-14.6
			c-6.7,0-10.1-3.4-10.1-10.1V76.1c0-4.7-0.8-8.4-2.6-10.8c-1.7-2.6-3.7-3.8-5.9-3.8c-2.9,0-5.4,1.5-7.7,4.5c-1,1.2-1.8,2.8-2.4,4.5
			v41.7l6.7,1.6v1.6h-31.4v-1.5H832.6z"/>
		<path class="st0" d="M917.3,138c-4.2-1.2-7.2-2.8-9.1-4.6c-1.8-1.8-2.8-3.9-2.8-5.9c0-2.6,0.8-4.6,2.3-6.1
			c1.5-1.5,3.6-2.4,6.1-2.4c0.6,0,1.7,0.1,3.3,0.3l1.2,0.2v15.8c0.9,0.3,2.3,0.7,4.3,1.1c3.5,0.7,6.7,1.1,9.8,1.1
			c9.1,0,15.8-1.3,20-3.9c4.2-2.6,6.3-5.8,6.3-9.6c0-4.9-4.5-7.3-13.5-7.3H924c-5.6,0-9.9-1.1-13-3.5c-3-2.4-4.5-5.3-4.5-8.9
			c0-3.6,1.7-6.8,5.3-9.6c1.4-1,3.3-1.9,5.4-2.9c-2.8-1.7-4.8-3.8-6-6.1c-1.2-2.4-1.8-5.2-1.8-8.5c0-5.5,2.1-10,6.3-13.4
			c4.2-3.4,10.3-5.1,18.4-5.1c3.5,0,6.7,0.3,9.7,1s5.3,1.6,7.1,2.9c0.6-1.2,1.4-2.4,2.3-3.4c2.2-2.3,5-3.4,8.3-3.4
			c2.6,0,4.7,0.9,6.4,2.7c1.7,1.7,2.6,4.1,2.6,7c0,2.1-0.6,4-1.7,5.3c-1.1,1.3-2.7,2-4.4,2c-0.8,0-1.7-0.1-2.9-0.2l-1.1-0.3V58.7
			c-1.9,0-3.8,0.9-5.5,2.9c-0.7,0.7-1.2,1.6-1.8,2.9c3.8,3.3,5.6,7.6,5.6,12.9c0,5.5-2.1,10-6.3,13.4c-4.2,3.4-10.3,5.1-18.4,5.1
			c-5.4,0-10.2-0.9-14.6-2.9l-2.2,1.1c-0.7,0.4-1.3,0.9-1.6,1.3c-0.4,0.4-0.6,0.9-0.6,1.5c0,1.2,0.6,2.3,1.9,3c1.3,0.7,3.7,1,7,1
			h21.3c5.6,0,10,1.6,13.2,4.9c3.2,3.3,4.8,7.8,4.8,13.7c0,6-2.4,10.8-7.4,14.6c-5,3.8-12.4,5.6-22.2,5.6
			C926.9,139.8,921.5,139.2,917.3,138z M939.9,90c1.4-2.4,2-6.7,2-12.7c0-6-0.7-10.3-2-12.7c-1.4-2.4-3.3-3.6-5.8-3.6
			s-4.4,1.2-5.8,3.6c-1.4,2.4-2,6.7-2,12.7c0,6,0.7,10.3,2,12.7c1.4,2.4,3.3,3.6,5.8,3.6S938.5,92.4,939.9,90z"/>
		<path class="st0" d="M989,114.2c-1.8-1-3.3-2-4.4-3.2c-1.2,1.6-2.6,3-3.9,3.8c-0.7,0.4-1.4,0.8-2.2,1.2h-2.9V96.9h4.5
			c1,3.2,2.3,6,4.3,8.8c4,5.7,8.9,8.7,14.8,8.7c3.2,0,5.5-0.8,7.1-2.4c1.6-1.5,2.4-3.8,2.4-6.7c0-2.5-1.1-4.6-3.3-6.2
			c-2.2-1.6-5.7-3.8-10.4-6.2c-4.1-2-7.3-3.9-9.8-5.4c-2.6-1.6-4.6-3.7-6.4-6c-1.7-2.5-2.7-5.3-2.7-8.6c0-4.5,1.9-8.2,5.8-11
			c3.9-2.9,9.8-4.2,17.7-4.2c4,0,7.7,1,11,3.2c1.6,1,3.1,1.9,4.3,3.1c1-1.3,2.2-2.7,4-3.8c1.2-0.7,2-1.1,2.2-1.2h2.9v19.1h-4.5
			c-1.1-3.3-2.6-6.1-4.2-8.7c-3.8-5.8-8.2-8.8-13.4-8.8c-2,0-3.8,0.7-5.2,2.3c-1.4,1.5-2.1,3.4-2.1,5.6c0,2.9,1.2,5.2,3.6,7.2
			c2.3,1.9,6,4.1,10.9,6.6c4,2,7.1,3.8,9.5,5.3s4.4,3.5,6,5.7c1.6,2.3,2.6,4.9,2.6,7.9c0,10.8-8.6,16.3-25.8,16.3
			C996.8,117.3,992.7,116.3,989,114.2z"/>
	</g>
	<g>
		<ellipse class="st1" cx="1122.3" cy="76.6" rx="36.1" ry="36.2"/>
		<path class="st1" d="M1122.6,32.9h-0.8c-1.5,0-2.7-1.2-2.7-2.7V3.2c0-1.5,1.2-2.7,2.7-2.7h0.8c1.5,0,2.7,1.2,2.7,2.7v27.1
			C1125.4,31.8,1124.1,32.9,1122.6,32.9z"/>
		<path class="st1" d="M1122.6,152.5h-0.8c-1.5,0-2.7-1.2-2.7-2.7v-27.1c0-1.5,1.2-2.7,2.7-2.7h0.8c1.5,0,2.7,1.2,2.7,2.7v27.1
			C1125.4,151.3,1124.1,152.5,1122.6,152.5z"/>
		<path class="st2" d="M1139.5,35.9l-0.7-0.3c-1.4-0.6-2.1-2.3-1.5-3.7l5.5-13.3c0.6-1.4,2.2-2.1,3.7-1.5l0.7,0.3
			c1.4,0.6,2.1,2.3,1.5,3.7l-5.5,13.3C1142.6,35.8,1141,36.4,1139.5,35.9z"/>
		<path class="st2" d="M1098.2,135.5l-0.7-0.3c-1.4-0.6-2-2.3-1.5-3.6l5.6-13.4c0.6-1.4,2.2-2,3.6-1.5l0.7,0.3
			c1.4,0.6,2,2.3,1.5,3.6l-5.6,13.4C1101.3,135.4,1099.7,136,1098.2,135.5z"/>
		<path class="st1" d="M1165.7,76.9V76c0-1.5,1.2-2.7,2.7-2.7h27c1.5,0,2.7,1.2,2.7,2.7v0.8c0,1.5-1.2,2.7-2.7,2.7h-27
			C1166.9,79.6,1165.7,78.4,1165.7,76.9z"/>
		<path class="st1" d="M1046.5,76.9V76c0-1.5,1.2-2.7,2.7-2.7h27c1.5,0,2.7,1.2,2.7,2.7v0.8c0,1.5-1.2,2.7-2.7,2.7h-27
			C1047.7,79.6,1046.5,78.4,1046.5,76.9z"/>
		<path class="st1" d="M1152.3,107l0.5-0.5c1-1,2.8-1,3.8,0l19.1,19.1c1,1,1,2.8,0,3.8l-0.5,0.5c-1,1-2.8,1-3.8,0l-19.1-19.1
			C1151.2,109.6,1151.2,108,1152.3,107z"/>
		<path class="st1" d="M1068,22.4l0.5-0.5c1-1,2.8-1,3.8,0l19.1,19.1c1,1,1,2.8,0,3.8l-0.5,0.5c-1,1-2.8,1-3.8,0L1068,26.2
			C1067,25.2,1067,23.4,1068,22.4z"/>
		<path class="st1" d="M1091.3,106.7l0.5,0.5c1,1,1,2.8,0,3.8l-19.1,19.1c-1,1-2.8,1-3.8,0l-0.5-0.5c-1-1-1-2.8,0-3.8l19.1-19.1
			C1088.5,105.7,1090.3,105.7,1091.3,106.7z"/>
		<path class="st1" d="M1175.6,22.2l0.5,0.5c1,1,1,2.8,0,3.8L1157,45.6c-1,1-2.8,1-3.8,0l-0.5-0.5c-1-1-1-2.8,0-3.8l19.1-19.1
			C1172.8,21.2,1174.5,21.2,1175.6,22.2z"/>
		<path class="st2" d="M1162.6,93.4l0.3-0.7c0.6-1.4,2.2-2.1,3.7-1.5l13.3,5.5c1.4,0.6,2.1,2.3,1.5,3.7l-0.3,0.7
			c-0.6,1.4-2.2,2.1-3.7,1.5l-13.3-5.5C1162.7,96.6,1162,94.9,1162.6,93.4z"/>
		<path class="st2" d="M1063.3,52.1l0.3-0.7c0.6-1.4,2.2-2,3.6-1.5l13.4,5.6c1.4,0.6,2,2.3,1.5,3.6l-0.3,0.7c-0.6,1.4-2.2,2-3.6,1.5
			l-13.4-5.6C1063.4,55.1,1062.7,53.5,1063.3,52.1z"/>
		<path class="st2" d="M1163.1,60.2l-0.3-0.7c-0.6-1.4,0.1-3.1,1.5-3.7l13.4-5.4c1.4-0.6,3.1,0.1,3.7,1.5l0.3,0.7
			c0.6,1.4-0.1,3.1-1.5,3.7l-13.4,5.4C1165.4,62.3,1163.7,61.7,1163.1,60.2z"/>
		<path class="st2" d="M1063.3,100.5l-0.3-0.7c-0.6-1.4,0.1-3.1,1.5-3.6l13.5-5.4c1.4-0.6,3.1,0.1,3.6,1.5l0.3,0.7
			c0.6,1.4-0.1,3.1-1.5,3.6l-13.5,5.4C1065.6,102.7,1064,101.9,1063.3,100.5z"/>
		<path class="st2" d="M1139.1,116.8l0.7-0.3c1.4-0.6,3.1,0.1,3.7,1.5l5.6,13.3c0.6,1.4-0.1,3.1-1.5,3.7l-0.7,0.3
			c-1.4,0.6-3.1-0.1-3.7-1.5l-5.6-13.3C1137,119.1,1137.7,117.4,1139.1,116.8z"/>
		<path class="st2" d="M1097,17.5l0.7-0.3c1.4-0.6,3.1,0.1,3.6,1.4L1107,32c0.6,1.4-0.1,3.1-1.4,3.6l-0.7,0.3
			c-1.4,0.6-3.1-0.1-3.6-1.4l-5.7-13.4C1095,19.7,1095.7,18.1,1097,17.5z"/>
	</g>
</g>
</svg>
