<?xml version="1.0" encoding="utf-8"?>
<!-- Generator: Adobe Illustrator 26.0.2, SVG Export Plug-In . SVG Version: 6.00 Build 0)  -->
<svg version="1.1" id="Layer_1" xmlns="http://www.w3.org/2000/svg" xmlns:xlink="http://www.w3.org/1999/xlink" x="0px" y="0px"
	 viewBox="0 0 1198 165" style="enable-background:new 0 0 1198 165;" xml:space="preserve">
<style type="text/css">
	.st0{fill:#333333;}
	.st1{fill:#FF7900;}
	.st2{fill:#FFD700;}
</style>
<g>
	<g>
		<path class="st0" d="M20,110.6c-6.6-7-9.9-16.9-9.9-29.7c0-8.4,1.4-15.7,4.3-21.7c2.9-6,7-10.6,12.2-13.8
			c5.2-3.1,11.3-4.7,18.2-4.7c4.2,0,8.4,1.2,12.6,3.6c1.6,0.9,3.2,2.1,4.8,3.5c1.2-1.9,2.5-3.4,3.8-4.5c1.3-1,2.1-1.5,2.2-1.5h2.8
			v20.9h-4.4c-1-3.5-2.4-6.7-4.3-9.6c-1.8-2.8-3.9-5.1-6.5-6.9c-2.6-1.8-5.6-2.8-9-2.8c-5.1,0-9.3,2.9-12.6,8.8
			c-3.3,5.9-5,15.4-5,28.6c0,13.4,1.8,23,5.4,28.8c3.6,5.8,8.6,8.6,14.9,8.6c3.4,0,6.7-1,9.8-2.9c3.1-1.9,5.6-4.5,7.6-7.8
			C69,104.4,70,101,70,97.4h2.8c0,4.2-1.1,8.1-3.4,11.7c-2.2,3.6-5.3,6.5-9.1,8.7c-3.9,2.2-8.1,3.2-12.8,3.2
			C35.7,121.1,26.6,117.6,20,110.6z"/>
		<path class="st0" d="M87.7,113.3c-5.2-5.2-7.8-12.3-7.8-21.4c0-9.1,2.6-16.2,7.8-21.4c5.2-5.2,12.3-7.8,21.4-7.8
			c9.1,0,16.2,2.6,21.4,7.8c5.2,5.2,7.8,12.3,7.8,21.4c0,9.1-2.6,16.2-7.8,21.4c-5.2,5.2-12.3,7.8-21.4,7.8
			C100,121.1,92.8,118.5,87.7,113.3z M116.5,112.7c2-4.1,3-11,3-20.8c0-9.8-1-16.7-3-20.8c-2-4.1-4.5-6.2-7.4-6.2
			c-2.9,0-5.4,2.1-7.4,6.2c-2,4.1-3,11-3,20.8c0,9.8,1,16.7,3,20.8c2,4.1,4.5,6.2,7.4,6.2C112,118.9,114.5,116.8,116.5,112.7z"/>
		<path class="st0" d="M147,117.8l6.6-1.6V67.7l-6.6-1.6v-1.6h9.9c4.3,0,7.7,1.4,10.2,4.2c1,1.1,1.8,2.5,2.4,4.1
			c1.1-2.1,2.3-3.7,3.5-5c3.3-3.3,7.1-4.9,11.3-4.9c4.3,0,8,0.9,11.2,2.8c3.2,1.9,5.7,4.4,7.5,7.6c1.1-2.1,2.3-3.8,3.5-5.2
			c3.4-3.5,7.1-5.3,11.3-5.3c3.9,0,7.4,0.8,10.5,2.4c3.1,1.6,5.5,3.8,7.3,6.6c1.7,2.8,2.6,5.8,2.6,9.1v35.2l6.6,1.6v1.6h-14.3
			c-6.6,0-9.9-3.3-9.9-9.9V80.9c0-4.8-0.7-8.3-2.2-10.7c-1.5-2.4-3.1-3.6-4.9-3.6c-2.1,0-4.3,1.5-6.5,4.4c-0.9,1.4-1.6,2.9-2.3,4.4
			v40.7l6.6,1.6v1.6h-30.8v-1.6l6.6-1.6V80.9c0-4.8-0.7-8.3-2.2-10.7c-1.5-2.4-3.1-3.6-5-3.6c-2.1,0-4.3,1.5-6.5,4.4
			c-0.9,1.4-1.7,2.9-2.3,4.4v40.7l6.6,1.6v1.6H147V117.8z"/>
		<path class="st0" d="M259.3,113.3c-5.2-5.2-7.8-12.3-7.8-21.4c0-5.9,1.1-11.1,3.4-15.5c2.3-4.4,5.4-7.8,9.5-10.1
			c4.1-2.3,8.7-3.5,14-3.5c5.3,0,9.9,1,13.9,3c4,2,7.1,4.6,9.2,8c2.2,3.3,3.2,7,3.2,11.1c0,1.8-0.2,3.4-0.5,4.7l-0.6,1.9
			c-3.2,0.7-6.6,1.2-10.2,1.6c-7.7,1.1-15.5,1.6-23.3,1.6c0,8.5,1.2,14.6,3.5,18.2c2.3,3.6,5.6,5.4,9.7,5.4c2.9,0,5.5-0.7,8-2
			c2.5-1.4,4.4-3.2,5.8-5.4c1.4-2.2,2.1-4.5,2.1-6.9h2.8c0,2.9-0.9,5.7-2.6,8.4c-1.8,2.6-4.2,4.7-7.4,6.3c-3.2,1.6-6.8,2.4-10.9,2.4
			C271.8,121.1,264.5,118.5,259.3,113.3z M281.7,91.4c1.2-0.1,2.6-0.3,4-0.6c0.1-0.4,0.3-1.2,0.5-2.4c0.4-1.8,0.6-3.8,0.6-5.8
			c0-6.1-0.8-10.5-2.4-13.4c-1.6-2.8-3.6-4.2-5.8-4.2c-5.5,0-8.2,9-8.2,27C274.9,91.9,278.7,91.7,281.7,91.4z"/>
		<path class="st0" d="M337.3,117.8l8.8-3.3l30.2-73.1h3.3l31.4,74.8l5.5,1.6v1.6h-13.2c-3.8,0-6.9-0.9-9.3-2.6
			c-2.4-1.7-4.2-4-5.4-6.8L383,96.9h-26.3l-7.3,17.6l8.2,3.3v1.6h-20.4V117.8z M357.8,94.1h24.1l-12.1-28.9L357.8,94.1z"/>
		<path class="st0" d="M418.7,117.8l6.6-1.6V45.7l-6.6-1.6v-1.6H433c6.6,0,9.9,3.3,9.9,9.9v63.8l6.6,1.6v1.6h-30.8V117.8z"/>
		<path class="st0" d="M463.9,113.3c-5.2-5.2-7.8-12.3-7.8-21.4c0-9.1,2.6-16.2,7.8-21.4c5.2-5.2,12.3-7.8,21.4-7.8
			c9.1,0,16.2,2.6,21.4,7.8c5.2,5.2,7.8,12.3,7.8,21.4c0,9.1-2.6,16.2-7.8,21.4c-5.2,5.2-12.3,7.8-21.4,7.8
			C476.2,121.1,469,118.5,463.9,113.3z M492.7,112.7c2-4.1,3-11,3-20.8c0-9.8-1-16.7-3-20.8c-2-4.1-4.5-6.2-7.4-6.2
			c-2.9,0-5.4,2.1-7.4,6.2c-2,4.1-3,11-3,20.8c0,9.8,1,16.7,3,20.8c2,4.1,4.5,6.2,7.4,6.2C488.2,118.9,490.7,116.8,492.7,112.7z"/>
		<path class="st0" d="M523.2,117.8l6.6-1.6V67.7l-6.6-1.6v-1.6h9.9c4.3,0,7.7,1.4,10.2,4.2c1,1.1,1.8,2.5,2.4,4.1
			c1-1.9,2.2-3.6,3.6-5c3.3-3.3,7.4-4.9,12.3-4.9c4.1,0,7.8,0.9,11.1,2.6c3.3,1.7,5.8,4,7.6,6.8c1.8,2.8,2.8,5.7,2.8,8.8v35.2
			l6.6,1.6v1.6h-14.3c-6.6,0-9.9-3.3-9.9-9.9V80.9c0-4.6-0.8-8.2-2.5-10.6c-1.6-2.5-3.6-3.7-5.8-3.7c-2.8,0-5.3,1.5-7.5,4.4
			c-1,1.2-1.8,2.7-2.4,4.4v40.7l6.6,1.6v1.6h-30.8V117.8z"/>
		<path class="st0" d="M606.3,141.3c-4.1-1.2-7.1-2.7-8.9-4.5c-1.8-1.8-2.7-3.8-2.7-5.8c0-2.5,0.8-4.5,2.3-6c1.5-1.5,3.5-2.3,6-2.3
			c0.6,0,1.7,0.1,3.2,0.3l1.2,0.2v15.4c0.9,0.3,2.3,0.7,4.2,1.1c3.4,0.7,6.6,1.1,9.6,1.1c8.9,0,15.5-1.3,19.6-3.8
			c4.1-2.5,6.2-5.7,6.2-9.4c0-4.8-4.4-7.1-13.2-7.1h-20.9c-5.5,0-9.7-1.1-12.7-3.4c-2.9-2.3-4.4-5.2-4.4-8.7s1.7-6.6,5.2-9.4
			c1.4-1,3.2-1.9,5.3-2.8c-2.7-1.7-4.7-3.7-5.9-6c-1.2-2.3-1.8-5.1-1.8-8.3c0-5.4,2.1-9.8,6.2-13.1c4.1-3.3,10.1-5,18-5
			c3.4,0,6.6,0.3,9.5,1c2.9,0.7,5.2,1.6,7,2.8c0.6-1.2,1.4-2.3,2.3-3.3c2.2-2.2,4.9-3.3,8.1-3.3c2.5,0,4.6,0.9,6.3,2.6
			c1.7,1.7,2.5,4,2.5,6.8c0,2.1-0.6,3.9-1.7,5.2c-1.1,1.3-2.6,2-4.3,2c-0.8,0-1.7-0.1-2.8-0.2l-1.1-0.3V63.9c-1.9,0-3.7,0.9-5.4,2.8
			c-0.7,0.7-1.2,1.6-1.8,2.8c3.7,3.2,5.5,7.4,5.5,12.6c0,5.4-2.1,9.8-6.2,13.1c-4.1,3.3-10.1,5-18,5c-5.3,0-10-0.9-14.3-2.8
			l-2.2,1.1c-0.7,0.4-1.3,0.9-1.6,1.3c-0.4,0.4-0.6,0.9-0.6,1.5c0,1.2,0.6,2.2,1.9,2.9c1.3,0.7,3.6,1,6.9,1h20.9
			c5.5,0,9.8,1.6,12.9,4.8c3.1,3.2,4.7,7.6,4.7,13.4c0,5.9-2.4,10.6-7.3,14.3c-4.9,3.7-12.2,5.5-21.8,5.5
			C615.7,143.1,610.4,142.5,606.3,141.3z M628.4,94.4c1.4-2.3,2-6.5,2-12.4s-0.7-10.1-2-12.4c-1.4-2.3-3.2-3.5-5.7-3.5
			s-4.3,1.2-5.7,3.5c-1.4,2.3-2,6.5-2,12.4s0.7,10.1,2,12.4c1.4,2.3,3.2,3.5,5.7,3.5S627.1,96.8,628.4,94.4z"/>
		<path class="st0" d="M707.1,117.5c-2.1-1-3.8-2.2-5.2-3.6c-1,1.7-2.3,3.2-3.9,4.5c-1.3,1-2.1,1.5-2.2,1.5h-2.8V99.1h4.4
			c1.1,3.6,2.6,6.8,4.6,9.7c4.5,6.4,10.3,9.6,17.4,9.6c4.2,0,7.5-1.2,10-3.7c2.5-2.5,3.7-5.8,3.7-10c0-2.4-0.7-4.6-2.1-6.5
			c-1.4-1.9-3.2-3.6-5.3-5.1c-2.1-1.5-5.1-3.3-8.9-5.5c-4.8-2.7-8.8-5.2-11.8-7.4c-3-2.2-5.6-5-7.7-8.3c-2.1-3.3-3.2-7.3-3.2-11.8
			c0-3.6,1-6.8,3-9.7c2-2.9,5-5.2,9.1-6.9c4-1.7,9-2.6,14.9-2.6c4.3,0,8.5,1.2,12.8,3.6c1.6,0.9,3.2,2.1,4.8,3.5
			c1.2-1.9,2.5-3.4,3.8-4.5c1.3-1,2.1-1.5,2.2-1.5h2.8v20.9h-4.4c-1-3.5-2.4-6.7-4.3-9.6c-1.8-2.8-3.9-5.1-6.5-6.9
			c-2.6-1.8-5.6-2.8-9-2.8c-2.9,0-5.3,1.1-7.4,3.4c-2.1,2.3-3.1,5.2-3.1,8.7c0,2.7,0.8,5.2,2.4,7.3c1.6,2.2,3.5,4.1,5.8,5.7
			c2.3,1.6,5.4,3.6,9.4,5.8c4.6,2.6,8.4,5,11.2,7c2.9,2.1,5.3,4.6,7.3,7.6c2,3,3,6.5,3,10.5s-1.1,7.6-3.4,10.8
			c-2.3,3.3-5.7,5.8-10.2,7.8c-4.5,1.9-10.1,2.9-16.6,2.9C716.6,121.1,711.7,119.9,707.1,117.5z"/>
		<path class="st0" d="M766.9,113.3c-5.2-5.2-7.8-12.3-7.8-21.4c0-9.1,2.6-16.2,7.8-21.4s12.3-7.8,21.4-7.8c9.1,0,16.2,2.6,21.4,7.8
			s7.8,12.3,7.8,21.4c0,9.1-2.6,16.2-7.8,21.4s-12.3,7.8-21.4,7.8C779.2,121.1,772.1,118.5,766.9,113.3z M795.7,112.7
			c2-4.1,3-11,3-20.8c0-9.8-1-16.7-3-20.8c-2-4.1-4.5-6.2-7.4-6.2c-2.9,0-5.4,2.1-7.4,6.2c-2,4.1-3,11-3,20.8c0,9.8,1,16.7,3,20.8
			c2,4.1,4.5,6.2,7.4,6.2C791.2,118.9,793.7,116.8,795.7,112.7z"/>
		<path class="st0" d="M826.3,117.8l6.6-1.6V67.7l-6.6-1.6v-1.6h9.9c4.3,0,7.7,1.4,10.2,4.2c1,1.1,1.8,2.5,2.4,4.1
			c1-1.9,2.2-3.6,3.6-5c3.3-3.3,7.4-4.9,12.3-4.9c4.1,0,7.8,0.9,11.1,2.6c3.3,1.7,5.8,4,7.6,6.8c1.8,2.8,2.8,5.7,2.8,8.8v35.2
			l6.6,1.6v1.6h-14.3c-6.6,0-9.9-3.3-9.9-9.9V80.9c0-4.6-0.8-8.2-2.5-10.6c-1.7-2.5-3.6-3.7-5.8-3.7c-2.8,0-5.3,1.5-7.5,4.4
			c-1,1.2-1.8,2.7-2.4,4.4v40.7l6.6,1.6v1.6h-30.8V117.8z"/>
		<path class="st0" d="M909.3,141.3c-4.1-1.2-7.1-2.7-8.9-4.5c-1.8-1.8-2.7-3.8-2.7-5.8c0-2.5,0.8-4.5,2.3-6c1.5-1.5,3.5-2.3,6-2.3
			c0.6,0,1.7,0.1,3.2,0.3l1.2,0.2v15.4c0.9,0.3,2.3,0.7,4.2,1.1c3.4,0.7,6.6,1.1,9.6,1.1c8.9,0,15.5-1.3,19.6-3.8
			c4.1-2.5,6.2-5.7,6.2-9.4c0-4.8-4.4-7.1-13.2-7.1h-20.9c-5.5,0-9.7-1.1-12.7-3.4c-2.9-2.3-4.4-5.2-4.4-8.7s1.7-6.6,5.2-9.4
			c1.4-1,3.2-1.9,5.3-2.8c-2.7-1.7-4.7-3.7-5.9-6c-1.2-2.3-1.8-5.1-1.8-8.3c0-5.4,2.1-9.8,6.2-13.1c4.1-3.3,10.1-5,18-5
			c3.4,0,6.6,0.3,9.5,1c2.9,0.7,5.2,1.6,7,2.8c0.6-1.2,1.4-2.3,2.3-3.3c2.2-2.2,4.9-3.3,8.1-3.3c2.5,0,4.6,0.9,6.3,2.6
			c1.7,1.7,2.5,4,2.5,6.8c0,2.1-0.6,3.9-1.7,5.2c-1.1,1.3-2.6,2-4.3,2c-0.8,0-1.7-0.1-2.8-0.2l-1.1-0.3V63.9c-1.9,0-3.7,0.9-5.4,2.8
			c-0.7,0.7-1.2,1.6-1.8,2.8c3.7,3.2,5.5,7.4,5.5,12.6c0,5.4-2.1,9.8-6.2,13.1c-4.1,3.3-10.1,5-18,5c-5.3,0-10-0.9-14.3-2.8
			l-2.2,1.1c-0.7,0.4-1.3,0.9-1.6,1.3c-0.4,0.4-0.6,0.9-0.6,1.5c0,1.2,0.6,2.2,1.9,2.9c1.3,0.7,3.6,1,6.9,1h20.9
			c5.5,0,9.8,1.6,12.9,4.8c3.1,3.2,4.7,7.6,4.7,13.4c0,5.9-2.4,10.6-7.3,14.3c-4.9,3.7-12.2,5.5-21.8,5.5
			C918.7,143.1,913.4,142.5,909.3,141.3z M931.5,94.4c1.4-2.3,2-6.5,2-12.4s-0.7-10.1-2-12.4c-1.4-2.3-3.2-3.5-5.7-3.5
			s-4.3,1.2-5.7,3.5c-1.4,2.3-2,6.5-2,12.4s0.7,10.1,2,12.4c1.4,2.3,3.2,3.5,5.7,3.5S930.1,96.8,931.5,94.4z"/>
		<path class="st0" d="M979.6,118.1c-1.8-1-3.2-2-4.3-3.1c-1.2,1.6-2.5,2.9-3.8,3.7c-0.7,0.4-1.4,0.8-2.2,1.2h-2.8v-18.7h4.4
			c1,3.1,2.3,5.9,4.2,8.6c3.9,5.6,8.7,8.5,14.5,8.5c3.1,0,5.4-0.8,7-2.3c1.6-1.5,2.4-3.7,2.4-6.5c0-2.4-1.1-4.5-3.2-6.1
			c-2.2-1.6-5.6-3.7-10.2-6.1c-4-2-7.2-3.8-9.6-5.3c-2.5-1.6-4.5-3.6-6.3-5.9c-1.7-2.4-2.6-5.2-2.6-8.4c0-4.4,1.9-8,5.7-10.7
			c3.8-2.8,9.6-4.1,17.4-4.1c3.9,0,7.5,1,10.8,3.1c1.6,1,3,1.9,4.2,3c1-1.3,2.2-2.6,3.9-3.7c1.2-0.7,2-1.1,2.2-1.2h2.8v18.7h-4.4
			c-1.1-3.2-2.5-6-4.1-8.5c-3.7-5.7-8-8.6-13.1-8.6c-2,0-3.7,0.7-5.1,2.2c-1.4,1.5-2.1,3.3-2.1,5.5c0,2.8,1.2,5.1,3.5,7
			c2.3,1.9,5.9,4,10.7,6.4c3.9,2,7,3.7,9.3,5.2c2.3,1.5,4.3,3.4,5.9,5.6c1.6,2.2,2.5,4.8,2.5,7.7c0,10.6-8.4,15.9-25.3,15.9
			C987.3,121.1,983.2,120.1,979.6,118.1z"/>
	</g>
	<g>
		<circle class="st1" cx="1110.3" cy="81.3" r="35.4"/>
		<path class="st1" d="M1110.6,38.7h-0.8c-1.5,0-2.6-1.2-2.6-2.6V9.6c0-1.5,1.2-2.6,2.6-2.6h0.8c1.5,0,2.6,1.2,2.6,2.6v26.5
			C1113.3,37.6,1112.1,38.7,1110.6,38.7z"/>
		<path class="st1" d="M1110.6,155.5h-0.8c-1.5,0-2.6-1.2-2.6-2.6v-26.5c0-1.5,1.2-2.6,2.6-2.6h0.8c1.5,0,2.6,1.2,2.6,2.6v26.5
			C1113.3,154.3,1112.1,155.5,1110.6,155.5z"/>
		<path class="st2" d="M1127.2,41.6l-0.7-0.3c-1.4-0.6-2.1-2.2-1.5-3.6l5.4-13c0.6-1.4,2.2-2.1,3.6-1.5l0.7,0.3
			c1.4,0.6,2.1,2.2,1.5,3.6l-5.4,13C1130.2,41.5,1128.6,42.1,1127.2,41.6z"/>
		<path class="st2" d="M1086.7,138.9l-0.7-0.3c-1.4-0.6-2-2.2-1.5-3.5l5.5-13.1c0.6-1.4,2.2-2,3.5-1.5l0.7,0.3
			c1.4,0.6,2,2.2,1.5,3.5l-5.5,13.1C1089.7,138.8,1088.1,139.4,1086.7,138.9z"/>
		<path class="st1" d="M1152.8,81.6v-0.8c0-1.5,1.2-2.6,2.6-2.6h26.5c1.5,0,2.6,1.2,2.6,2.6v0.8c0,1.5-1.2,2.6-2.6,2.6h-26.5
			C1154,84.3,1152.8,83.1,1152.8,81.6z"/>
		<path class="st1" d="M1036,81.6v-0.8c0-1.5,1.2-2.6,2.6-2.6h26.5c1.5,0,2.6,1.2,2.6,2.6v0.8c0,1.5-1.2,2.6-2.6,2.6h-26.5
			C1037.2,84.3,1036,83.1,1036,81.6z"/>
		<path class="st1" d="M1139.7,111l0.5-0.5c1-1,2.7-1,3.7,0l18.7,18.7c1,1,1,2.7,0,3.7l-0.5,0.5c-1,1-2.7,1-3.7,0l-18.7-18.7
			C1138.6,113.6,1138.6,112,1139.7,111z"/>
		<path class="st1" d="M1057.1,28.4l0.5-0.5c1-1,2.7-1,3.7,0l18.7,18.7c1,1,1,2.7,0,3.7l-0.5,0.5c-1,1-2.7,1-3.7,0l-18.7-18.7
			C1056.1,31.1,1056.1,29.4,1057.1,28.4z"/>
		<path class="st1" d="M1079.9,110.8l0.5,0.5c1,1,1,2.7,0,3.7l-18.7,18.7c-1,1-2.7,1-3.7,0l-0.5-0.5c-1-1-1-2.7,0-3.7l18.7-18.7
			C1077.2,109.8,1078.9,109.8,1079.9,110.8z"/>
		<path class="st1" d="M1162.5,28.2l0.5,0.5c1,1,1,2.7,0,3.7l-18.7,18.7c-1,1-2.7,1-3.7,0l-0.5-0.5c-1-1-1-2.7,0-3.7l18.7-18.7
			C1159.8,27.2,1161.5,27.2,1162.5,28.2z"/>
		<path class="st2" d="M1149.8,97.8l0.3-0.7c0.6-1.4,2.2-2.1,3.6-1.5l13,5.4c1.4,0.6,2.1,2.2,1.5,3.6l-0.3,0.7
			c-0.6,1.4-2.2,2.1-3.6,1.5l-13-5.4C1149.9,100.9,1149.2,99.2,1149.8,97.8z"/>
		<path class="st2" d="M1052.5,57.4l0.3-0.7c0.6-1.4,2.2-2,3.5-1.5l13.1,5.5c1.4,0.6,2,2.2,1.5,3.5l-0.3,0.7c-0.6,1.4-2.2,2-3.5,1.5
			l-13.1-5.5C1052.6,60.3,1051.9,58.8,1052.5,57.4z"/>
		<path class="st2" d="M1150.3,65.3l-0.3-0.7c-0.6-1.4,0.1-3,1.5-3.6l13.1-5.3c1.4-0.6,3,0.1,3.6,1.5l0.3,0.7c0.6,1.4-0.1,3-1.5,3.6
			l-13.1,5.3C1152.5,67.4,1150.9,66.8,1150.3,65.3z"/>
		<path class="st2" d="M1052.5,104.7l-0.3-0.7c-0.6-1.4,0.1-3,1.5-3.5l13.2-5.3c1.4-0.6,3,0.1,3.5,1.5l0.3,0.7
			c0.6,1.4-0.1,3-1.5,3.5l-13.2,5.3C1054.7,106.8,1053.1,106.1,1052.5,104.7z"/>
		<path class="st2" d="M1126.8,120.6l0.7-0.3c1.4-0.6,3,0.1,3.6,1.5l5.5,13c0.6,1.4-0.1,3-1.5,3.6l-0.7,0.3c-1.4,0.6-3-0.1-3.6-1.5
			l-5.5-13C1124.7,122.9,1125.4,121.2,1126.8,120.6z"/>
		<path class="st2" d="M1085.5,23.6l0.7-0.3c1.4-0.6,3,0.1,3.5,1.4l5.6,13.1c0.6,1.4-0.1,3-1.4,3.5l-0.7,0.3c-1.4,0.6-3-0.1-3.5-1.4
			l-5.6-13.1C1083.5,25.8,1084.2,24.2,1085.5,23.6z"/>
	</g>
</g>
</svg>
