<?xml version="1.0" encoding="utf-8"?>
<svg viewBox="309.27 200.59 208.783 209.552" xmlns="http://www.w3.org/2000/svg">
  <g transform="matrix(1, 0, 0, 1, 221.576477, 105.064392)">
    <path d="M 180.283 95.526 C 163.633 95.526 138.293 111.592 127.704 119.624 C 117.846 130.031 96.924 155.663 92.104 174.942 C 86.08 199.04 85.532 215.471 94.843 237.926 C 104.154 260.382 118.941 280.099 144.683 293.791 C 170.425 307.484 183.569 306.389 212.597 302.555 C 241.625 298.721 252.031 287.22 275.583 268.05 C 299.133 248.88 287.631 241.213 293.656 218.757 C 299.681 196.302 294.752 181.514 290.918 167.274 C 287.083 153.034 275.583 130.031 257.508 116.886 C 239.434 103.741 201.096 95.526 180.283 95.526 Z" fill="#FCEB53" style=""/>
    <path d="M 182.788 113.052 C 168.549 113.052 146.878 126.825 137.823 133.711 C 129.392 142.632 111.5 164.606 107.378 181.133 C 102.226 201.793 101.758 215.878 109.72 235.129 C 117.682 254.38 130.329 271.282 152.343 283.021 C 174.357 294.759 185.598 293.82 210.423 290.533 C 235.247 287.246 244.146 277.386 264.287 260.953 C 284.427 244.52 274.591 237.947 279.743 218.695 C 284.895 199.445 280.68 186.767 277.401 174.56 C 274.122 162.352 264.287 142.632 248.83 131.363 C 233.373 120.095 200.586 113.052 182.788 113.052 Z" fill="#FFFDE8" style=""/>
    <path d="M 202.804 185.075 C 202.02 190.076 208.516 190.979 211.862 190.805 L 216.023 188.722 L 222.143 182.471 L 230.222 174.917 L 237.566 170.749 C 241.483 167.71 250.15 160.956 253.479 158.247 C 256.808 155.538 254.866 149.998 253.479 147.567 L 247.359 139.753 C 245.482 138.19 240.112 134.231 233.649 130.897 C 227.187 127.563 223.286 130.897 222.143 132.981 L 220.675 139.753 L 216.023 154.079 L 210.638 168.405 C 208.352 171.878 203.587 180.074 202.804 185.075 Z" fill="#F7E476" style=""/>
    <path d="M 189.31 186.329 C 192.338 190.758 197.938 186.823 200.36 184.303 L 202.018 179.723 L 202.147 170.52 L 202.824 158.913 L 205.395 150.451 C 206.175 145.306 207.877 133.899 208.449 129.428 C 209.021 124.957 203.527 122.056 200.709 121.165 L 190.385 119.484 C 187.823 119.613 180.865 120.379 173.529 122.409 C 166.191 124.439 165.637 129.801 166.278 132.228 L 170.068 138.516 L 176.91 152.918 L 183.192 167.843 C 183.97 172.161 186.282 181.901 189.31 186.329 Z" fill="#F7E476" style=""/>
    <path d="M 198.549 232.687 C 196.508 228.773 191.509 231.477 189.265 233.319 L 187.441 236.92 L 186.407 244.456 L 184.682 253.914 L 181.716 260.615 C 180.556 264.762 178.007 273.96 177.086 277.575 C 176.166 281.188 180.387 284.08 182.613 285.075 L 190.925 287.418 C 193.043 287.551 198.837 287.572 205.071 286.591 C 211.304 285.612 212.3 281.265 212.018 279.215 L 209.538 273.703 L 205.369 261.251 L 201.712 248.422 C 201.508 244.809 200.59 236.603 198.549 232.687 Z" fill="#F7E476" style=""/>
    <path d="M 207.806 196.17 C 204.159 200.058 209.677 204.879 212.893 206.805 L 217.981 207.565 L 227.323 205.897 L 239.248 204.305 L 248.514 205.218 C 253.932 204.992 265.937 204.464 270.616 204.161 C 275.295 203.858 276.719 197.808 276.846 194.82 L 275.71 184.187 C 274.875 181.655 272.188 174.859 268.118 167.931 C 264.05 161.004 258.475 161.498 256.196 162.611 L 250.878 167.623 L 238.192 177.266 L 224.822 186.453 C 220.669 188.071 211.453 192.282 207.806 196.17 Z" fill="#F7E476" style=""/>
    <path d="M 208.194 209.384 C 203.003 210.6 204.925 217.672 206.535 221.055 L 210.35 224.508 L 219.051 228.295 L 229.86 233.577 L 237.067 239.471 C 241.703 242.285 251.99 248.497 256.052 250.838 C 260.115 253.179 264.654 248.931 266.415 246.515 L 271.36 237.033 C 272.068 234.463 273.597 227.316 274.048 219.294 C 274.499 211.273 269.584 208.595 267.07 208.259 L 259.866 209.485 L 243.962 210.482 L 227.742 210.723 C 223.389 209.77 213.384 208.168 208.194 209.384 Z" fill="#F7E476" style=""/>
    <path d="M 187.68 187.705 C 188.833 192.909 181.627 194.24 177.879 194.254 L 173.115 192.313 L 165.932 186.11 L 156.49 178.655 L 148.055 174.713 C 143.511 171.753 133.456 165.172 129.586 162.523 C 125.718 159.876 127.58 153.946 128.995 151.312 L 135.399 142.747 C 137.409 140.996 143.187 136.522 150.223 132.641 C 157.258 128.76 161.799 132.031 163.19 134.151 L 165.207 141.175 L 171.197 155.941 L 178.006 170.664 C 180.751 174.176 186.528 182.501 187.68 187.705 Z" fill="#F7E476" style=""/>
    <path d="M 177.11 196.513 C 180.957 200.204 175.701 205.309 172.592 207.401 L 167.551 208.429 L 158.133 207.255 L 146.141 206.294 L 136.936 207.694 C 131.513 207.753 119.496 207.858 114.808 207.803 C 110.12 207.747 108.379 201.779 108.094 198.803 L 108.67 188.124 C 109.37 185.552 111.695 178.624 115.394 171.491 C 119.092 164.359 124.686 164.559 127.02 165.551 L 132.594 170.275 L 145.771 179.236 L 159.606 187.706 C 163.839 189.104 173.264 192.823 177.11 196.513 Z" fill="#F7E476" style=""/>
    <path d="M 171.744 211.479 C 176.569 212.326 175.098 219.048 173.759 222.305 L 170.394 225.748 L 162.547 229.778 L 152.824 235.324 L 146.44 241.242 C 142.293 244.134 133.09 250.52 129.45 252.938 C 125.811 255.354 121.458 251.635 119.736 249.473 L 114.788 240.88 C 114.03 238.515 112.323 231.916 111.572 224.437 C 110.821 216.957 115.231 214.178 117.529 213.724 L 124.208 214.466 L 138.881 214.509 L 153.814 213.826 C 157.78 212.691 166.918 210.632 171.744 211.479 Z" fill="#F7E476" style=""/>
    <path d="M 179.509 220.515 C 183.322 218.674 185.786 225.546 186.541 229.212 L 185.977 234.142 L 182.585 242.024 L 178.669 252.29 L 177.28 261.088 C 175.883 265.942 172.767 276.687 171.477 280.838 C 170.189 284.989 165.214 283.978 162.888 282.954 L 154.965 277.858 C 153.207 276.131 148.586 271.087 144.177 264.731 C 139.767 258.376 141.406 253.481 142.777 251.829 L 147.831 248.893 L 158.112 241.006 L 168.195 232.321 C 170.378 229.152 175.696 222.356 179.509 220.515 Z" fill="#F7E476" style=""/>
    <path d="M 200.071 231.323 C 199.648 226.993 206.496 226.853 209.973 227.325 L 214.151 229.499 L 220.045 235.41 L 227.878 242.616 L 235.212 246.872 C 239.059 249.835 247.569 256.42 250.829 259.047 C 254.09 261.673 251.627 266.198 249.987 268.131 L 242.985 274.186 C 240.904 275.334 234.988 278.183 227.982 280.394 C 220.976 282.604 217.169 279.391 216.141 277.508 L 215.143 271.605 L 211.42 258.968 L 206.931 246.261 C 204.82 243.086 200.493 235.653 200.071 231.323 Z" fill="#F7E476" style=""/>
  </g>
</svg>